<?xml version="1.0" encoding="utf-8"?>
<!-- Generator: Adobe Illustrator 15.1.0, SVG Export Plug-In . SVG Version: 6.00 Build 0)  -->
<!DOCTYPE svg PUBLIC "-//W3C//DTD SVG 1.1//EN" "http://www.w3.org/Graphics/SVG/1.1/DTD/svg11.dtd">
<svg version="1.1" id="Capa_1" xmlns="http://www.w3.org/2000/svg" xmlns:xlink="http://www.w3.org/1999/xlink" x="0px" y="0px"
	 width="95px" height="34px" viewBox="0 0 95 34" enable-background="new 0 0 95 34" xml:space="preserve">
<path fill="#FFFFFF" d="M7.349,16.464V6.874h7.303c3.579,0,5.774,1.622,5.774,4.773v0.094c0,2.817-2.052,4.724-5.631,4.724H7.349z
	 M0,33.648h7.349V22.955h5.68h0.096l7.158,10.693h8.59l-8.161-11.931c4.247-1.575,7.158-4.964,7.158-10.358v-0.096
	c0-3.149-1.002-5.774-2.864-7.635c-2.195-2.195-5.487-3.39-9.735-3.39H0V33.648z M81.637,19.665L77.199,8.829l-4.438,10.835H81.637z
	 M73.907,0h6.777L95,33.648h-7.685l-3.053-7.492H70.136l-3.054,7.492h-7.495L73.907,0z M39.609,27.204v-7.349h8.495
	c3.77,0,5.441,1.383,5.441,3.626v0.096c0,2.483-1.957,3.627-5.202,3.627H39.609z M39.609,13.747V6.682h7.254
	c3.103,0,4.82,1.241,4.82,3.436v0.096c0,2.483-2.053,3.533-5.298,3.533H39.609z M32.451,33.648h15.892
	c7.539,0,12.503-3.056,12.503-9.163V24.39c0-4.487-2.387-6.732-6.253-8.211c2.389-1.336,4.394-3.436,4.394-7.204V8.877
	c0-2.29-0.764-4.149-2.291-5.679c-1.908-1.91-4.917-2.959-8.734-2.959h-15.51V33.648z"/>
</svg>
